<svg xmlns="http://www.w3.org/2000/svg" viewBox="0 0 64 64" width="64" height="64" role="img" aria-label="Come Color With Me icon">
  <!-- Background circle -->
  <circle cx="32" cy="32" r="30" fill="#FFF0FA"/>

  <!-- Palette body -->
  <ellipse cx="32" cy="34" rx="17" ry="15" fill="#9B6FD4" opacity="0.15"/>
  <ellipse cx="32" cy="34" rx="15" ry="13" fill="none" stroke="#9B6FD4" stroke-width="2.5"/>

  <!-- Thumb hole -->
  <ellipse cx="39" cy="41" rx="4" ry="3" fill="white" stroke="#9B6FD4" stroke-width="2"/>

  <!-- Paint dots -->
  <circle cx="23" cy="28" r="4" fill="#F472B6"/>
  <circle cx="32" cy="22" r="4" fill="#9B6FD4"/>
  <circle cx="41" cy="28" r="4" fill="#6EE7B7"/>
  <circle cx="25" cy="38" r="3.5" fill="#FDBA74"/>
  <circle cx="36" cy="38" r="3.5" fill="#93C5FD"/>

  <!-- Sparkle top-right -->
  <circle cx="50" cy="14" r="3" fill="#F472B6" opacity="0.8"/>
  <!-- Sparkle bottom-left -->
  <circle cx="14" cy="52" r="2" fill="#93C5FD" opacity="0.7"/>
  <!-- Small star top-left -->
  <polygon points="16,10 17.2,13.6 21,13.6 18.1,15.8 19.2,19.5 16,17.2 12.8,19.5 13.9,15.8 11,13.6 14.8,13.6" fill="#FDBA74" opacity="0.9" transform="scale(0.7) translate(6,4)"/>
</svg>
